<?xml version="1.0" encoding="UTF-8" standalone="no"?>
<svg
   xmlns:dc="http://purl.org/dc/elements/1.1/"
   xmlns:cc="http://creativecommons.org/ns#"
   xmlns:rdf="http://www.w3.org/1999/02/22-rdf-syntax-ns#"
   xmlns:svg="http://www.w3.org/2000/svg"
   xmlns="http://www.w3.org/2000/svg"
   viewBox="0 0 204.45442 239.00005"
   height="239.00005"
   width="204.45442"
   version="1.1"
   id="svg2">
  <metadata
     id="metadata8">
    <rdf:RDF>
      <cc:Work
         rdf:about="">
        <dc:format>image/svg+xml</dc:format>
        <dc:type
           rdf:resource="http://purl.org/dc/dcmitype/StillImage" />
        <dc:title></dc:title>
      </cc:Work>
    </rdf:RDF>
  </metadata>
  <defs
     id="defs6" />
  <path
     id="path4138"
     d="m 31.447817,202.5 0,-36.5 6.000001,0 6,0 0,16.02256 0,16.02256 18.25,-0.27256 18.25,-0.27256 0.27539,-15.75 0.2754,-15.75 5.9746,0 5.97461,0 0,36.5 0,36.5 -6,0 -6,0 0,-15 0,-15 -18.5,0 -18.5,0 0,15 0,15 -6,0 -6.000001,0 0,-36.5 z m 81.000003,0 0,-36.5 16.45078,0 c 9.04793,0 18.83543,0.50597 21.75,1.12438 11.5079,2.44172 20.07017,8.96042 24.6794,18.78914 2.3168,4.94032 2.61546,6.80096 2.58209,16.08648 -0.0335,9.31924 -0.35185,11.1889 -2.83097,16.62611 -6.96284,15.27089 -18.72408,20.3239 -47.3813,20.35653 l -15.25,0.0174 0,-36.5 z m 39.02073,22.99366 c 10.23133,-3.60759 15.82039,-13.58336 14.64747,-26.14389 -1.46676,-15.70717 -8.91433,-21.30459 -29.4182,-22.11001 l -12.25,-0.4812 0,24.95405 c 0,13.72473 0.3375,25.30808 0.75,25.74078 1.20958,1.26882 21.38215,-0.236 26.27073,-1.95973 z M 67.330078,149.54793 c -10.8691,-2.99689 -64.2045009,-29.53014 -66.52404091,-33.09431 -1.12664,-1.73117 -1.09159,-2.38929 0.22756001,-4.27263 2.03746,-2.90889 65.5246109,-34.089081 70.9142209,-34.827831 3.28715,-0.45056 5.22827,0.0929 10.89215,3.04928 7.76099,4.05108 8.81751,4.24504 11.03642,2.02613 3.49315,-3.49315 0.57444,-16.21177 -4.54286,-19.79607 -4.82121,-3.3769 -7.16448,-2.67855 -36.26458,10.8077 -49.9083809,23.12973 -53.14338091,23.14765 -35.201341,0.19496 4.10421,-5.25038 7.93875,-10.43659 8.5212,-11.52491 1.68815,-3.15433 1.25848,-6.552709 -1.81231,-14.334219 C 17.969977,31.03482 16.296707,15.136847 20.312677,7.264887 22.993177,2.010671 25.887177,0 30.769187,0 36.859578,0 41.325448,2.70456 50.043058,11.672398 L 58.138308,20 l 44.309512,0 44.30951,0 8.09525,-8.327602 C 163.57019,2.70456 168.03606,0 174.12644,0 c 4.88201,0 7.77601,2.010671 10.45652,7.264887 3.98833,7.81778 2.07385,25.083293 -4.59786,41.465243 -2.74454,6.73905 -3.13604,10.282559 -1.47828,13.380119 0.58245,1.08832 4.41699,6.27453 8.5212,11.52491 17.94205,22.95269 14.70705,22.93477 -35.20133,-0.19496 -29.1001,-13.48625 -31.44337,-14.1846 -36.26458,-10.8077 -5.1173,3.5843 -8.03601,16.30292 -4.54286,19.79607 2.21891,2.21891 3.27543,2.02495 11.03642,-2.02613 5.66318,-2.95605 7.60541,-3.49986 10.89215,-3.04972 3.97139,0.54392 66.35336,30.432421 69.75,33.418691 2.82241,2.48141 2.1874,5.98606 -1.5,8.27853 -5.13797,3.1943 -41.65234,21.50814 -51.40663,25.78307 -10.78418,4.72629 -19.04381,6.86655 -20.5781,5.33226 -0.76402,-0.76402 -0.35146,-2.0222 1.43264,-4.36914 5.86435,-7.71439 7.1556,-13.27806 4.34366,-18.71575 C 132.95962,123.15524 123.65588,115 121.20774,115 c -2.81595,0 -8.75992,6.55317 -8.75992,9.65772 0,1.38343 1.37743,4.43337 3.06096,6.77764 2.59234,3.60976 3.01336,5.01268 2.75,9.16348 -0.28406,4.47717 -0.61374,5.05241 -3.81096,6.64961 -4.86885,2.43226 -19.131152,2.43226 -24.000002,0 -3.19722,-1.5972 -3.5269,-2.17244 -3.81096,-6.64961 -0.26336,-4.1508 0.15766,-5.55372 2.75,-9.16348 1.68353,-2.34427 3.06096,-5.39421 3.06096,-6.77764 0,-3.10455 -5.94397,-9.65772 -8.75992,-9.65772 -2.44814,0 -11.75188,8.15524 -13.78165,12.08038 -2.80048,5.41553 -1.51741,11.00526 4.27551,18.6264 3.93422,5.17585 1.97418,6.27467 -6.85168,3.84115 z m 11.80329,-48.72224 c 5.15706,-4.844811 1.55488,-13.825691 -5.54541,-13.825691 -4.78025,0 -8.14014,3.24421 -8.14014,7.85986 0,7.270541 8.39932,10.931981 13.68555,5.965831 z m 58.000002,0 c 5.15706,-4.844811 1.55488,-13.825691 -5.54541,-13.825691 -4.78025,0 -8.14014,3.24421 -8.14014,7.85986 0,7.270541 8.39932,10.931981 13.68555,5.965831 z"
     style="fill:#000000" />
</svg>
